<svg width="410" height="324" viewBox="0 0 410 324" fill="none" xmlns="http://www.w3.org/2000/svg">
<g filter="url(#filter0_d)">
<path d="M360.914 22H49.0864C39.6499 22 32 29.6583 32 39.1053V264.895C32 274.342 39.6499 282 49.0864 282H360.914C370.35 282 378 274.342 378 264.895V39.1053C378 29.6583 370.35 22 360.914 22Z" fill="white"/>
<path d="M208.905 95.7389L263.76 112.612L321.694 144.728L325.542 138.027L266.888 105.512L207.931 87.377L148.478 121.708L89.167 141.78L91.7169 149.054L151.77 128.732L208.905 95.7389Z" fill="#D8DEED"/>
<path d="M88.1304 155.576C82.7599 155.576 78.4062 151.315 78.4062 146.059C78.4062 140.802 82.7599 136.541 88.1304 136.541C93.5008 136.541 97.8545 140.802 97.8545 146.059C97.8545 151.315 93.5008 155.576 88.1304 155.576ZM146.475 133.822C141.105 133.822 136.751 129.56 136.751 124.304C136.751 119.047 141.105 114.786 146.475 114.786C151.845 114.786 156.199 119.047 156.199 124.304C156.199 129.56 151.845 133.822 146.475 133.822ZM204.82 101.19C199.449 101.19 195.096 96.9284 195.096 91.672C195.096 86.4155 199.449 82.1543 204.82 82.1543C210.19 82.1543 214.544 86.4155 214.544 91.672C214.544 96.9284 210.19 101.19 204.82 101.19ZM263.164 117.506C257.794 117.506 253.44 113.244 253.44 107.988C253.44 102.731 257.794 98.4703 263.164 98.4703C268.535 98.4703 272.888 102.731 272.888 107.988C272.888 113.244 268.535 117.506 263.164 117.506ZM321.509 152.857C316.138 152.857 311.785 148.596 311.785 143.339C311.785 138.083 316.138 133.822 321.509 133.822C326.879 133.822 331.233 138.083 331.233 143.339C331.233 148.596 326.879 152.857 321.509 152.857Z" fill="#0C7DFF"/>
<path d="M232.164 194.261V239.279C232.164 241.091 230.695 242.565 228.884 242.565H227.114C225.304 242.565 223.834 241.094 223.834 239.279V194.261C223.834 192.449 225.302 190.975 227.114 190.975H228.884C230.694 190.975 232.164 192.446 232.164 194.261ZM215.503 202.404V239.282C215.503 241.095 214.034 242.565 212.223 242.565H210.453C208.643 242.565 207.173 241.095 207.173 239.282V202.404C207.173 200.591 208.641 199.121 210.453 199.121H212.223C214.033 199.121 215.503 200.59 215.503 202.404ZM198.842 177.968V239.28C198.842 241.1 197.373 242.565 195.562 242.565H193.792C191.982 242.565 190.511 241.094 190.511 239.28V177.968C190.511 176.148 191.98 174.683 193.792 174.683H195.562C197.372 174.683 198.842 176.154 198.842 177.968ZM182.181 194.261V239.279C182.181 241.091 180.712 242.565 178.9 242.565H177.131C175.321 242.565 173.85 241.094 173.85 239.279V194.261C173.85 192.449 175.319 190.975 177.131 190.975H178.9C180.711 190.975 182.181 192.446 182.181 194.261ZM165.52 169.828V239.274C165.52 241.098 164.051 242.565 162.239 242.565H160.47C158.659 242.565 157.189 241.092 157.189 239.274V169.828C157.189 168.005 158.658 166.537 160.47 166.537H162.239C164.05 166.537 165.52 168.011 165.52 169.828ZM148.859 177.968V239.28C148.859 241.1 147.39 242.565 145.578 242.565H143.809C141.998 242.565 140.528 241.094 140.528 239.28V177.968C140.528 176.148 141.997 174.683 143.809 174.683H145.578C147.389 174.683 148.859 176.154 148.859 177.968ZM132.198 164.401V239.271C132.198 241.099 130.729 242.565 128.917 242.565H127.148C125.337 242.565 123.867 241.09 123.867 239.271V164.401C123.867 162.572 125.336 161.106 127.148 161.106H128.917C130.727 161.106 132.198 162.581 132.198 164.401ZM115.537 158.963V239.278C115.537 241.094 114.068 242.565 112.256 242.565H110.487C108.676 242.565 107.206 241.094 107.206 239.278V158.963C107.206 157.147 108.675 155.676 110.487 155.676H112.256C114.066 155.676 115.537 157.147 115.537 158.963ZM98.8755 177.968V239.28C98.8755 241.1 97.4067 242.565 95.595 242.565H93.8254C92.0151 242.565 90.5449 241.094 90.5449 239.28V177.968C90.5449 176.148 92.0136 174.683 93.8254 174.683H95.595C97.4053 174.683 98.8755 176.154 98.8755 177.968ZM332.131 194.261V239.279C332.131 241.091 330.662 242.565 328.85 242.565H327.081C325.27 242.565 323.8 241.094 323.8 239.279V194.261C323.8 192.449 325.269 190.975 327.081 190.975H328.85C330.661 190.975 332.131 192.446 332.131 194.261ZM315.47 169.828V239.274C315.47 241.098 314.001 242.565 312.189 242.565H310.42C308.609 242.565 307.139 241.092 307.139 239.274V169.828C307.139 168.005 308.608 166.537 310.42 166.537H312.189C313.999 166.537 315.47 168.011 315.47 169.828ZM298.809 177.968V239.28C298.809 241.1 297.34 242.565 295.528 242.565H293.758C291.948 242.565 290.478 241.094 290.478 239.28V177.968C290.478 176.148 291.947 174.683 293.758 174.683H295.528C297.338 174.683 298.809 176.154 298.809 177.968ZM282.147 164.401V239.271C282.147 241.099 280.679 242.565 278.867 242.565H277.097C275.287 242.565 273.817 241.09 273.817 239.271V164.401C273.817 162.572 275.286 161.106 277.097 161.106H278.867C280.677 161.106 282.147 162.581 282.147 164.401ZM265.486 158.963V239.278C265.486 241.094 264.018 242.565 262.206 242.565H260.436C258.626 242.565 257.156 241.094 257.156 239.278V158.963C257.156 157.147 258.625 155.676 260.436 155.676H262.206C264.016 155.676 265.486 157.147 265.486 158.963ZM248.825 177.968V239.28C248.825 241.1 247.357 242.565 245.545 242.565H243.775C241.965 242.565 240.495 241.094 240.495 239.28V177.968C240.495 176.148 241.963 174.683 243.775 174.683H245.545C247.355 174.683 248.825 176.154 248.825 177.968Z" fill="#D8DEED"/>
</g>
<defs>
<filter id="filter0_d" x="0" y="0" width="410" height="324" filterUnits="userSpaceOnUse" color-interpolation-filters="sRGB">
<feFlood flood-opacity="0" result="BackgroundImageFix"/>
<feColorMatrix in="SourceAlpha" type="matrix" values="0 0 0 0 0 0 0 0 0 0 0 0 0 0 0 0 0 0 127 0"/>
<feOffset dy="10"/>
<feGaussianBlur stdDeviation="16"/>
<feColorMatrix type="matrix" values="0 0 0 0 0.0946 0 0 0 0 0.083875 0 0 0 0 0.1375 0 0 0 0.07 0"/>
<feBlend mode="normal" in2="BackgroundImageFix" result="effect1_dropShadow"/>
<feBlend mode="normal" in="SourceGraphic" in2="effect1_dropShadow" result="shape"/>
</filter>
</defs>
</svg>
