<svg width="314" height="246" viewBox="0 0 314 246" fill="none" xmlns="http://www.w3.org/2000/svg">
<g filter="url(#filter0_d)">
<path d="M272.016 20H41.9837C34.2607 20 28 26.0117 28 33.4276V196.572C28 203.988 34.2607 210 41.9837 210H272.016C279.739 210 286 203.988 286 196.572V33.4276C286 26.0117 279.739 20 272.016 20Z" fill="white"/>
<path d="M182.365 159.182C206.385 145.329 214.649 114.705 200.823 90.7817C186.996 66.8588 156.315 58.696 132.295 72.5496C108.274 86.4032 100.01 117.027 113.837 140.95C127.663 164.873 158.344 173.036 182.365 159.182ZM174.341 145.299C157.999 154.724 137.142 149.175 127.75 132.926C118.359 116.676 123.976 95.8578 140.318 86.4326C156.661 77.0074 177.518 82.5564 186.909 98.8062C196.301 115.056 190.683 135.874 174.341 145.299Z" fill="#E1E5F0"/>
<path d="M128.283 65.6087C100.423 81.6765 90.8361 117.203 106.88 144.963C122.924 172.722 158.517 182.192 186.377 166.124C214.236 150.056 223.823 114.53 207.779 86.77L193.866 94.7945C205.475 114.881 198.534 140.602 178.353 152.241C158.171 163.881 132.402 157.025 120.793 136.938C109.184 116.852 116.125 91.131 136.306 79.4916L128.283 65.6087Z" fill="#499DFF"/>
<path d="M127.867 63.3458C99.2457 79.853 89.3962 116.353 105.88 144.873C122.364 173.394 158.932 183.123 187.553 166.616L177.937 149.978C158.518 161.178 133.723 154.582 122.554 135.257C111.385 115.932 118.063 91.1834 137.483 79.9833L127.867 63.3458Z" fill="#D8DEED"/>
</g>
<defs>
<filter id="filter0_d" x="0" y="0" width="314" height="246" filterUnits="userSpaceOnUse" color-interpolation-filters="sRGB">
<feFlood flood-opacity="0" result="BackgroundImageFix"/>
<feColorMatrix in="SourceAlpha" type="matrix" values="0 0 0 0 0 0 0 0 0 0 0 0 0 0 0 0 0 0 127 0"/>
<feOffset dy="8"/>
<feGaussianBlur stdDeviation="14"/>
<feColorMatrix type="matrix" values="0 0 0 0 0.0946 0 0 0 0 0.083875 0 0 0 0 0.1375 0 0 0 0.06 0"/>
<feBlend mode="normal" in2="BackgroundImageFix" result="effect1_dropShadow"/>
<feBlend mode="normal" in="SourceGraphic" in2="effect1_dropShadow" result="shape"/>
</filter>
</defs>
</svg>
