<svg width="322" height="254" viewBox="0 0 322 254" fill="none" xmlns="http://www.w3.org/2000/svg">
<g filter="url(#filter0_d)">
<rect x="32" y="23" width="258.001" height="190" rx="17.9479" fill="white"/>
<mask id="mask0" mask-type="alpha" maskUnits="userSpaceOnUse" x="199" y="57" width="43" height="133">
<path d="M207.656 57.0576H233.227C236.178 57.0576 237.249 57.3649 238.328 57.942C239.407 58.519 240.253 59.3659 240.83 60.4449C241.408 61.5239 241.715 62.5941 241.715 65.5456V181.005C241.715 183.957 241.408 185.027 240.83 186.106C240.253 187.185 239.407 188.032 238.328 188.609C237.249 189.186 236.178 189.493 233.227 189.493H207.656C204.704 189.493 203.634 189.186 202.555 188.609C201.476 188.032 200.629 187.185 200.052 186.106C199.475 185.027 199.168 183.957 199.168 181.005V65.5456C199.168 62.5941 199.475 61.5239 200.052 60.4449C200.629 59.3659 201.476 58.519 202.555 57.942C203.634 57.3649 204.704 57.0576 207.656 57.0576Z" fill="white"/>
</mask>
<g mask="url(#mask0)">
<path d="M207.656 57.0576H233.227C236.178 57.0576 237.249 57.3649 238.328 57.942C239.407 58.519 240.253 59.3659 240.83 60.4449C241.408 61.5239 241.715 62.5941 241.715 65.5456V181.005C241.715 183.957 241.408 185.027 240.83 186.106C240.253 187.185 239.407 188.032 238.328 188.609C237.249 189.186 236.178 189.493 233.227 189.493H207.656C204.704 189.493 203.634 189.186 202.555 188.609C201.476 188.032 200.629 187.185 200.052 186.106C199.475 185.027 199.168 183.957 199.168 181.005V65.5456C199.168 62.5941 199.475 61.5239 200.052 60.4449C200.629 59.3659 201.476 58.519 202.555 57.942C203.634 57.3649 204.704 57.0576 207.656 57.0576Z" fill="#E8F2FE"/>
<path d="M201.065 132.06H239.818C240.478 132.06 240.717 132.128 240.958 132.257C241.199 132.386 241.388 132.575 241.517 132.816C241.646 133.058 241.715 133.297 241.715 133.956V189.493H199.168V133.956C199.168 133.297 199.237 133.058 199.366 132.816C199.495 132.575 199.684 132.386 199.925 132.257C200.166 132.128 200.405 132.06 201.065 132.06Z" fill="#85BEFF"/>
</g>
<mask id="mask1" mask-type="alpha" maskUnits="userSpaceOnUse" x="140" y="57" width="43" height="133">
<path d="M148.901 57.0576H174.472C177.423 57.0576 178.494 57.3649 179.573 57.942C180.652 58.519 181.499 59.3659 182.076 60.4449C182.653 61.5239 182.96 62.5941 182.96 65.5456V181.005C182.96 183.957 182.653 185.027 182.076 186.106C181.499 187.185 180.652 188.032 179.573 188.609C178.494 189.186 177.423 189.493 174.472 189.493H148.901C145.95 189.493 144.879 189.186 143.8 188.609C142.721 188.032 141.875 187.185 141.297 186.106C140.72 185.027 140.413 183.957 140.413 181.005V65.5456C140.413 62.5941 140.72 61.5239 141.297 60.4449C141.875 59.3659 142.721 58.519 143.8 57.942C144.879 57.3649 145.95 57.0576 148.901 57.0576Z" fill="white"/>
</mask>
<g mask="url(#mask1)">
<path d="M148.901 57.0576H174.472C177.423 57.0576 178.494 57.3649 179.573 57.942C180.652 58.519 181.499 59.3659 182.076 60.4449C182.653 61.5239 182.96 62.5941 182.96 65.5456V181.005C182.96 183.957 182.653 185.027 182.076 186.106C181.499 187.185 180.652 188.032 179.573 188.609C178.494 189.186 177.423 189.493 174.472 189.493H148.901C145.95 189.493 144.879 189.186 143.8 188.609C142.721 188.032 141.875 187.185 141.297 186.106C140.72 185.027 140.413 183.957 140.413 181.005V65.5456C140.413 62.5941 140.72 61.5239 141.297 60.4449C141.875 59.3659 142.721 58.519 143.8 57.942C144.879 57.3649 145.95 57.0576 148.901 57.0576Z" fill="#E8F2FE"/>
<path d="M142.31 86.1123H181.063C181.723 86.1123 181.962 86.181 182.203 86.3099C182.444 86.4389 182.633 86.6281 182.762 86.8692C182.891 87.1104 182.96 87.3495 182.96 88.0091V189.493H140.413V88.0091C140.413 87.3495 140.482 87.1104 140.611 86.8692C140.74 86.6281 140.929 86.4389 141.17 86.3099C141.411 86.181 141.65 86.1123 142.31 86.1123Z" fill="#85BEFF"/>
</g>
<mask id="mask2" mask-type="alpha" maskUnits="userSpaceOnUse" x="81" y="57" width="44" height="133">
<path d="M90.1432 57.0576H115.714C118.666 57.0576 119.736 57.3649 120.815 57.942C121.894 58.519 122.741 59.3659 123.318 60.4449C123.895 61.5239 124.202 62.5941 124.202 65.5456V181.005C124.202 183.956 123.895 185.027 123.318 186.106C122.741 187.185 121.894 188.032 120.815 188.609C119.736 189.186 118.666 189.493 115.714 189.493H90.1432C87.1918 189.493 86.1215 189.186 85.0425 188.609C83.9635 188.032 83.1167 187.185 82.5396 186.106C81.9626 185.027 81.6553 183.956 81.6553 181.005V65.5456C81.6553 62.5941 81.9626 61.5239 82.5396 60.4449C83.1167 59.3659 83.9635 58.519 85.0425 57.942C86.1215 57.3649 87.1918 57.0576 90.1432 57.0576Z" fill="white"/>
</mask>
<g mask="url(#mask2)">
<path d="M90.1432 57.0576H115.714C118.666 57.0576 119.736 57.3649 120.815 57.942C121.894 58.519 122.741 59.3659 123.318 60.4449C123.895 61.5239 124.202 62.5941 124.202 65.5456V181.005C124.202 183.956 123.895 185.027 123.318 186.106C122.741 187.185 121.894 188.032 120.815 188.609C119.736 189.186 118.666 189.493 115.714 189.493H90.1432C87.1918 189.493 86.1215 189.186 85.0425 188.609C83.9635 188.032 83.1167 187.185 82.5396 186.106C81.9626 185.027 81.6553 183.956 81.6553 181.005V65.5456C81.6553 62.5941 81.9626 61.5239 82.5396 60.4449C83.1167 59.3659 83.9635 58.519 85.0425 57.942C86.1215 57.3649 87.1918 57.0576 90.1432 57.0576Z" fill="#E8F2FE"/>
<path d="M83.552 109.086H122.305C122.965 109.086 123.204 109.155 123.445 109.284C123.686 109.413 123.876 109.602 124.005 109.843C124.133 110.084 124.202 110.323 124.202 110.983V189.493H81.6553V110.983C81.6553 110.323 81.7239 110.084 81.8529 109.843C81.9818 109.602 82.1711 109.413 82.4122 109.284C82.6533 109.155 82.8925 109.086 83.552 109.086Z" fill="#85BEFF"/>
</g>
</g>
<defs>
<filter id="filter0_d" x="0.591232" y="0.565166" width="320.818" height="252.818" filterUnits="userSpaceOnUse" color-interpolation-filters="sRGB">
<feFlood flood-opacity="0" result="BackgroundImageFix"/>
<feColorMatrix in="SourceAlpha" type="matrix" values="0 0 0 0 0 0 0 0 0 0 0 0 0 0 0 0 0 0 127 0"/>
<feOffset dy="8.97393"/>
<feGaussianBlur stdDeviation="15.7044"/>
<feColorMatrix type="matrix" values="0 0 0 0 0.0946 0 0 0 0 0.083875 0 0 0 0 0.1375 0 0 0 0.06 0"/>
<feBlend mode="normal" in2="BackgroundImageFix" result="effect1_dropShadow"/>
<feBlend mode="normal" in="SourceGraphic" in2="effect1_dropShadow" result="shape"/>
</filter>
</defs>
</svg>
