<svg width="234" height="194" viewBox="0 0 234 194" fill="none" xmlns="http://www.w3.org/2000/svg">
<g filter="url(#filter0_d)">
<rect x="22" y="16" width="190" height="150" rx="13.1034" fill="white"/>
<path d="M49.1332 132.664L77.3659 89.7085C80.0456 85.63 85.9192 85.2098 89.1406 88.8648L100.532 101.754C105.729 107.625 115.152 106.724 119.126 99.9867L146.29 53.8617C149.009 49.2411 155.503 48.923 158.705 53.2382L187.519 92.5335C188.19 93.4488 189.474 93.6453 190.387 92.9724C191.3 92.2995 191.496 91.012 190.825 90.0968L162.004 50.7921C157.05 44.1151 146.971 44.6088 142.756 51.7707L115.593 97.894C113.037 102.228 106.952 102.809 103.602 99.0242L92.2137 86.1386C87.2035 80.4541 78.105 81.1052 73.9394 87.4451L45.7069 130.401C45.0834 131.349 45.345 132.625 46.2912 133.25C47.2373 133.875 48.5098 133.613 49.1332 132.664Z" fill="#D8DEED"/>
<path d="M60.6628 117.695C64.0621 117.695 66.8178 114.932 66.8178 111.524C66.8178 108.116 64.0621 105.354 60.6628 105.354C57.2635 105.354 54.5078 108.116 54.5078 111.524C54.5078 114.932 57.2635 117.695 60.6628 117.695Z" fill="#85BEFF"/>
<path d="M129.301 84.41C132.701 84.41 135.456 81.6472 135.456 78.2392C135.456 74.8311 132.701 72.0684 129.301 72.0684C125.902 72.0684 123.146 74.8311 123.146 78.2392C123.146 81.6472 125.902 84.41 129.301 84.41Z" fill="#85BEFF"/>
</g>
<defs>
<filter id="filter0_d" x="0.473413" y="0.623867" width="233.053" height="193.053" filterUnits="userSpaceOnUse" color-interpolation-filters="sRGB">
<feFlood flood-opacity="0" result="BackgroundImageFix"/>
<feColorMatrix in="SourceAlpha" type="matrix" values="0 0 0 0 0 0 0 0 0 0 0 0 0 0 0 0 0 0 127 0"/>
<feOffset dy="6.15045"/>
<feGaussianBlur stdDeviation="10.7633"/>
<feColorMatrix type="matrix" values="0 0 0 0 0.0946 0 0 0 0 0.083875 0 0 0 0 0.1375 0 0 0 0.06 0"/>
<feBlend mode="normal" in2="BackgroundImageFix" result="effect1_dropShadow"/>
<feBlend mode="normal" in="SourceGraphic" in2="effect1_dropShadow" result="shape"/>
</filter>
</defs>
</svg>
