<svg width="242" height="202" viewBox="0 0 242 202" fill="none" xmlns="http://www.w3.org/2000/svg">
<g filter="url(#filter0_d)">
<rect x="26" y="19" width="190" height="150" rx="11.9522" fill="white"/>
<path d="M179.809 99.9326H186.066C188.728 99.9326 189.693 100.209 190.666 100.727C191.639 101.245 192.402 102.006 192.923 102.975C193.443 103.944 193.72 104.905 193.72 107.556V169H172.155V107.556C172.155 104.905 172.432 103.944 172.953 102.975C173.473 102.006 174.237 101.245 175.21 100.727C176.183 100.209 177.148 99.9326 179.809 99.9326Z" fill="#E6EAF5"/>
<path d="M155.163 116.432H161.805C164.466 116.432 165.431 116.708 166.404 117.226C167.377 117.744 168.141 118.505 168.661 119.474C169.182 120.443 169.459 121.404 169.459 124.055V168.999H147.509V124.055C147.509 121.404 147.786 120.443 148.306 119.474C148.827 118.505 149.59 117.744 150.563 117.226C151.536 116.708 152.501 116.432 155.163 116.432Z" fill="#E6EAF5"/>
<path d="M130.904 65.0156H137.161C139.822 65.0156 140.788 65.2916 141.761 65.8099C142.734 66.3282 143.497 67.0887 144.018 68.0578C144.538 69.0269 144.815 69.9881 144.815 72.6389V169H123.25V72.6389C123.25 69.9881 123.527 69.0269 124.047 68.0578C124.568 67.0887 125.331 66.3282 126.304 65.8099C127.277 65.2916 128.243 65.0156 130.904 65.0156Z" fill="#B6D8FF"/>
<path d="M106.258 78.4453H112.514C115.176 78.4453 116.141 78.7213 117.114 79.2396C118.087 79.7579 118.851 80.5184 119.371 81.4875C119.891 82.4566 120.169 83.4178 120.169 86.0686V169H98.6035V86.0686C98.6035 83.4178 98.8806 82.4566 99.401 81.4875C99.9214 80.5184 100.685 79.7579 101.658 79.2396C102.631 78.7213 103.596 78.4453 106.258 78.4453Z" fill="#E6EAF5"/>
<path d="M81.9948 109.909H88.2518C90.9133 109.909 91.8784 110.185 92.8514 110.703C93.8244 111.222 94.588 111.982 95.1083 112.951C95.6287 113.92 95.9058 114.882 95.9058 117.532V169H74.3408V117.532C74.3408 114.882 74.6179 113.92 75.1383 112.951C75.6587 111.982 76.4223 111.222 77.3953 110.703C78.3683 110.185 79.3334 109.909 81.9948 109.909Z" fill="#E6EAF5"/>
<path d="M57.3513 94.1777H63.6082C66.2697 94.1777 67.2348 94.4537 68.2078 94.972C69.1808 95.4903 69.9444 96.2508 70.4648 97.2199C70.9851 98.189 71.2623 99.1502 71.2623 101.801V169H49.6973V101.801C49.6973 99.1502 49.9744 98.189 50.4947 97.2199C51.0151 96.2508 51.7787 95.4903 52.7517 94.972C53.7247 94.4537 54.6898 94.1777 57.3513 94.1777Z" fill="#E6EAF5"/>
</g>
<defs>
<filter id="filter0_d" x="0" y="0" width="242" height="202" filterUnits="userSpaceOnUse" color-interpolation-filters="sRGB">
<feFlood flood-opacity="0" result="BackgroundImageFix"/>
<feColorMatrix in="SourceAlpha" type="matrix" values="0 0 0 0 0 0 0 0 0 0 0 0 0 0 0 0 0 0 127 0"/>
<feOffset dy="7"/>
<feGaussianBlur stdDeviation="13"/>
<feColorMatrix type="matrix" values="0 0 0 0 0.0946 0 0 0 0 0.083875 0 0 0 0 0.1375 0 0 0 0.04 0"/>
<feBlend mode="normal" in2="BackgroundImageFix" result="effect1_dropShadow"/>
<feBlend mode="normal" in="SourceGraphic" in2="effect1_dropShadow" result="shape"/>
</filter>
</defs>
</svg>
