<svg width="481" height="370" viewBox="0 0 481 370" fill="none" xmlns="http://www.w3.org/2000/svg">
<rect width="481" height="370" rx="29.6" fill="#F6FAFF"/>
<path d="M205.166 138.041H274.6V163.859C274.6 166.589 272.388 168.801 269.662 168.801H210.104C207.377 168.801 205.166 166.589 205.166 163.859V138.041Z" fill="#E1E5F0"/>
<path d="M93.8818 274.133H163.316V299.951C163.316 302.681 161.104 304.893 158.378 304.893H98.8197C96.0926 304.893 93.8818 302.681 93.8818 299.951V274.133Z" fill="#E1E5F0"/>
<path d="M205.166 274.133H274.6V299.951C274.6 302.681 272.388 304.893 269.662 304.893H210.104C207.377 304.893 205.166 302.681 205.166 299.951V274.133Z" fill="#E1E5F0"/>
<path d="M317.403 274.133H386.837V299.951C386.837 302.681 384.625 304.893 381.899 304.893H322.341C319.614 304.893 317.403 302.681 317.403 299.951V274.133Z" fill="#E1E5F0"/>
<path d="M205.166 86.106C205.166 83.3863 207.379 81.1816 210.104 81.1816H269.663C272.39 81.1816 274.6 83.3901 274.6 86.106V144.272H205.166V86.106ZM93.8818 221.584C93.8818 218.853 96.0939 216.64 98.8197 216.64H158.378C161.105 216.64 163.316 218.844 163.316 221.584V280.658H93.8818V221.584ZM205.166 221.584C205.166 218.853 207.379 216.64 210.104 216.64H269.663C272.39 216.64 274.6 218.844 274.6 221.584V280.658H205.166V221.584ZM317.402 221.584C317.402 218.853 319.614 216.64 322.34 216.64H381.898C384.625 216.64 386.836 218.844 386.836 221.584V280.658H317.402V221.584Z" fill="#0C7DFF"/>
<path d="M350.693 217.273V213.419V198.296C350.693 196.946 349.593 195.834 348.236 195.834H134.385C133.028 195.834 131.929 196.939 131.929 198.304V217.273H125.271V195.48C125.271 192.072 128.039 189.309 131.448 189.309H351.174C354.585 189.309 357.351 192.06 357.351 195.476V202.836V217.273H350.693Z" fill="#E1E5F0"/>
<path d="M243.213 168.802H236.555V217.273H243.213V168.802Z" fill="#E1E5F0"/>
</svg>
