<svg width="257" height="198" viewBox="0 0 257 198" fill="none" xmlns="http://www.w3.org/2000/svg">
<path d="M32.6953 65.4923C50.7524 65.4923 65.3905 50.8313 65.3905 32.7462C65.3905 14.661 50.7524 0 32.6953 0C14.6382 0 0 14.661 0 32.7462C0 50.8313 14.6382 65.4923 32.6953 65.4923Z" fill="#E6EAF5"/>
<path d="M128.5 65.4923C146.557 65.4923 161.195 50.8313 161.195 32.7462C161.195 14.661 146.557 0 128.5 0C110.443 0 95.8047 14.661 95.8047 32.7462C95.8047 50.8313 110.443 65.4923 128.5 65.4923Z" fill="#E6EAF5"/>
<path d="M224.305 65.4923C242.362 65.4923 257 50.8313 257 32.7462C257 14.661 242.362 0 224.305 0C206.248 0 191.609 14.661 191.609 32.7462C191.609 50.8313 206.248 65.4923 224.305 65.4923Z" fill="#E6EAF5"/>
<path d="M32.6953 176.677C50.7524 176.677 65.3905 161.845 65.3905 143.55C65.3905 125.254 50.7524 110.423 32.6953 110.423C14.6382 110.423 0 125.254 0 143.55C0 161.845 14.6382 176.677 32.6953 176.677Z" fill="#E6EAF5"/>
<path d="M128.5 176.677C146.557 176.677 161.195 161.845 161.195 143.55C161.195 125.254 146.557 110.423 128.5 110.423C110.443 110.423 95.8047 125.254 95.8047 143.55C95.8047 161.845 110.443 176.677 128.5 176.677Z" fill="#E6EAF5"/>
<path d="M223.925 176.677C242.192 176.677 257 161.845 257 143.55C257 125.254 242.192 110.423 223.925 110.423C205.658 110.423 190.849 125.254 190.849 143.55C190.849 161.845 205.658 176.677 223.925 176.677Z" fill="#E6EAF5"/>
<path d="M32.6951 32.7462C28.0759 32.7462 24.3312 29.1662 24.3312 24.7501C24.3312 20.3339 28.0759 16.7539 32.6951 16.7539C37.3144 16.7539 41.059 20.3339 41.059 24.7501C41.059 29.1662 37.3144 32.7462 32.6951 32.7462ZM32.6951 36.5539C41.0938 36.5539 47.9022 43.032 47.9022 51.0231H17.488C17.488 43.032 24.2965 36.5539 32.6951 36.5539Z" fill="white"/>
<path d="M128.5 32.7462C123.88 32.7462 120.136 29.1662 120.136 24.7501C120.136 20.3339 123.88 16.7539 128.5 16.7539C133.119 16.7539 136.863 20.3339 136.863 24.7501C136.863 29.1662 133.119 32.7462 128.5 32.7462ZM128.119 36.5539C136.308 36.5539 142.946 43.032 142.946 51.0231H113.292C113.292 43.032 119.931 36.5539 128.119 36.5539Z" fill="white"/>
<path d="M224.304 32.7462C219.685 32.7462 215.94 29.1662 215.94 24.7501C215.94 20.3339 219.685 16.7539 224.304 16.7539C228.924 16.7539 232.668 20.3339 232.668 24.7501C232.668 29.1662 228.924 32.7462 224.304 32.7462ZM223.924 36.5539C232.113 36.5539 238.751 43.032 238.751 51.0231H209.097C209.097 43.032 215.735 36.5539 223.924 36.5539Z" fill="white"/>
<path d="M32.6942 143.169C28.0749 143.169 24.3303 139.418 24.3303 134.792C24.3303 130.166 28.0749 126.415 32.6942 126.415C37.3134 126.415 41.0581 130.166 41.0581 134.792C41.0581 139.418 37.3134 143.169 32.6942 143.169ZM32.6942 146.215C41.0928 146.215 47.9013 153.034 47.9013 161.446H17.4871C17.4871 153.034 24.2955 146.215 32.6942 146.215Z" fill="white"/>
<path d="M128.5 143.169C123.88 143.169 120.136 139.418 120.136 134.792C120.136 130.166 123.88 126.415 128.5 126.415C133.119 126.415 136.863 130.166 136.863 134.792C136.863 139.418 133.119 143.169 128.5 143.169ZM128.119 146.215C136.308 146.215 142.946 153.034 142.946 161.446H113.292C113.292 153.034 119.931 146.215 128.119 146.215Z" fill="white"/>
<path d="M224.303 143.169C219.684 143.169 215.939 139.418 215.939 134.792C215.939 130.166 219.684 126.415 224.303 126.415C228.922 126.415 232.667 130.166 232.667 134.792C232.667 139.418 228.922 143.169 224.303 143.169ZM223.923 146.215C232.112 146.215 238.75 153.034 238.75 161.446H209.096C209.096 153.034 215.734 146.215 223.923 146.215Z" fill="white"/>
<path d="M58.5511 73.8691H6.83946C3.06213 73.8691 0 76.9377 0 80.723C0 84.5083 3.06213 87.5768 6.83946 87.5768H58.5511C62.3284 87.5768 65.3905 84.5083 65.3905 80.723C65.3905 76.9377 62.3284 73.8691 58.5511 73.8691Z" fill="#85BEFF"/>
<path d="M154.355 73.8691H102.643C98.8656 73.8691 95.8035 76.9377 95.8035 80.723C95.8035 84.5083 98.8656 87.5768 102.643 87.5768H154.355C158.132 87.5768 161.194 84.5083 161.194 80.723C161.194 76.9377 158.132 73.8691 154.355 73.8691Z" fill="#85BEFF"/>
<path d="M250.16 73.8691H197.688C193.91 73.8691 190.848 76.9377 190.848 80.723C190.848 84.5083 193.91 87.5768 197.688 87.5768H250.16C253.937 87.5768 256.999 84.5083 256.999 80.723C256.999 76.9377 253.937 73.8691 250.16 73.8691Z" fill="#85BEFF"/>
<path d="M58.5511 184.292H6.83946C3.06213 184.292 0 187.361 0 191.146C0 194.931 3.06213 198 6.83946 198H58.5511C62.3284 198 65.3905 194.931 65.3905 191.146C65.3905 187.361 62.3284 184.292 58.5511 184.292Z" fill="#85BEFF"/>
<path d="M154.355 184.292H102.643C98.8656 184.292 95.8035 187.361 95.8035 191.146C95.8035 194.931 98.8656 198 102.643 198H154.355C158.132 198 161.194 194.931 161.194 191.146C161.194 187.361 158.132 184.292 154.355 184.292Z" fill="#85BEFF"/>
<path d="M250.16 184.292H197.688C193.91 184.292 190.848 187.361 190.848 191.146C190.848 194.931 193.91 198 197.688 198H250.16C253.937 198 256.999 194.931 256.999 191.146C256.999 187.361 253.937 184.292 250.16 184.292Z" fill="#85BEFF"/>
</svg>
