<svg width="207" height="207" viewBox="0 0 207 207" fill="none" xmlns="http://www.w3.org/2000/svg">
<path d="M103.784 190.452C151.685 190.71 190.788 152.445 191.122 104.983C191.457 57.5221 152.897 18.8379 104.996 18.5797C57.0946 18.3216 17.992 56.5873 17.6574 104.049C17.3228 151.51 55.883 190.194 103.784 190.452ZM103.978 162.91C71.3891 162.734 45.1758 136.436 45.4031 104.198C45.6304 71.9598 72.2124 45.9468 104.801 46.1224C137.391 46.2981 163.604 72.5956 163.377 104.834C163.149 137.072 136.567 163.085 103.978 162.91Z" fill="#E1E5F0"/>
<path d="M105.096 4.80975C49.5386 4.51035 4.17557 48.9024 3.78731 103.975C3.39906 159.048 48.1328 203.926 103.69 204.225C159.247 204.524 204.61 160.132 204.998 105.06L177.252 104.91C176.971 144.76 144.129 176.899 103.884 176.682C63.6388 176.465 31.2521 143.974 31.5331 104.125C31.814 64.2749 64.6563 32.1356 104.901 32.3525L105.096 4.80975Z" fill="#499DFF"/>
<path d="M106.662 0.943889C49.5199 0.631087 2.86435 46.2835 2.46983 102.927C2.0753 159.57 48.0914 205.73 105.234 206.043L105.464 173C66.6929 172.788 35.4921 141.49 35.7595 103.109C36.0268 64.7287 67.6612 33.7745 106.432 33.9867L106.662 0.943889Z" fill="#D8DEED"/>
</svg>
