<svg width="222" height="184" viewBox="0 0 222 184" fill="none" xmlns="http://www.w3.org/2000/svg">
<mask id="mask0" mask-type="alpha" maskUnits="userSpaceOnUse" x="162" y="0" width="61" height="184">
<path d="M174.761 0L210.227 0C214.321 0 215.806 0.426959 217.302 1.2287C218.799 2.03044 219.973 3.20696 220.774 4.70608C221.574 6.20521 222 7.69219 222 11.7928V172.207C222 176.308 221.574 177.795 220.774 179.294C219.973 180.793 218.799 181.97 217.302 182.771C215.806 183.573 214.321 184 210.227 184H174.761C170.667 184 169.183 183.573 167.686 182.771C166.19 181.97 165.015 180.793 164.215 179.294C163.415 177.795 162.988 176.308 162.988 172.207V11.7928C162.988 7.69219 163.415 6.20521 164.215 4.70608C165.015 3.20696 166.19 2.03044 167.686 1.2287C169.183 0.426959 170.667 0 174.761 0Z" fill="white"/>
</mask>
<g mask="url(#mask0)">
<path d="M174.761 0L210.227 0C214.321 0 215.806 0.426959 217.302 1.2287C218.799 2.03044 219.973 3.20696 220.774 4.70608C221.574 6.20521 222 7.69219 222 11.7928V172.207C222 176.308 221.574 177.795 220.774 179.294C219.973 180.793 218.799 181.97 217.302 182.771C215.806 183.573 214.321 184 210.227 184H174.761C170.667 184 169.183 183.573 167.686 182.771C166.19 181.97 165.015 180.793 164.215 179.294C163.415 177.795 162.988 176.308 162.988 172.207V11.7928C162.988 7.69219 163.415 6.20521 164.215 4.70608C165.015 3.20696 166.19 2.03044 167.686 1.2287C169.183 0.426959 170.667 0 174.761 0Z" fill="#E8F2FE"/>
<path d="M165.619 104.205H219.369C220.284 104.205 220.616 104.3 220.95 104.48C221.285 104.659 221.547 104.922 221.726 105.257C221.905 105.592 222 105.924 222 106.84V184.001H162.988V106.84C162.988 105.924 163.084 105.592 163.262 105.257C163.441 104.922 163.704 104.659 164.038 104.48C164.373 104.3 164.704 104.205 165.619 104.205Z" fill="#85BEFF"/>
</g>
<mask id="mask1" mask-type="alpha" maskUnits="userSpaceOnUse" x="81" y="0" width="60" height="184">
<path d="M93.2688 0L128.735 0C132.829 0 134.313 0.426959 135.81 1.2287C137.306 2.03044 138.481 3.20696 139.281 4.70608C140.082 6.20521 140.508 7.69219 140.508 11.7928V172.207C140.508 176.308 140.082 177.795 139.281 179.294C138.481 180.793 137.306 181.97 135.81 182.771C134.313 183.573 132.829 184 128.735 184H93.2688C89.1751 184 87.6907 183.573 86.1941 182.771C84.6976 181.97 83.5231 180.793 82.7227 179.294C81.9223 177.795 81.4961 176.308 81.4961 172.207V11.7928C81.4961 7.69219 81.9223 6.20521 82.7227 4.70608C83.5231 3.20696 84.6976 2.03044 86.1941 1.2287C87.6907 0.426959 89.1751 0 93.2688 0Z" fill="white"/>
</mask>
<g mask="url(#mask1)">
<path d="M93.2688 0L128.735 0C132.829 0 134.313 0.426959 135.81 1.2287C137.306 2.03044 138.481 3.20696 139.281 4.70608C140.082 6.20521 140.508 7.69219 140.508 11.7928V172.207C140.508 176.308 140.082 177.795 139.281 179.294C138.481 180.793 137.306 181.97 135.81 182.771C134.313 183.573 132.829 184 128.735 184H93.2688C89.1751 184 87.6907 183.573 86.1941 182.771C84.6976 181.97 83.5231 180.793 82.7227 179.294C81.9223 177.795 81.4961 176.308 81.4961 172.207V11.7928C81.4961 7.69219 81.9223 6.20521 82.7227 4.70608C83.5231 3.20696 84.6976 2.03044 86.1941 1.2287C87.6907 0.426959 89.1751 0 93.2688 0Z" fill="#E8F2FE"/>
<path d="M84.1269 40.3682H137.877C138.792 40.3682 139.124 40.4636 139.458 40.6427C139.793 40.8219 140.055 41.0848 140.234 41.4198C140.413 41.7548 140.508 42.0871 140.508 43.0034V184.001H81.4961V43.0034C81.4961 42.0871 81.5913 41.7548 81.7702 41.4198C81.949 41.0848 82.2115 40.8219 82.5459 40.6427C82.8804 40.4636 83.2121 40.3682 84.1269 40.3682Z" fill="#85BEFF"/>
</g>
<mask id="mask2" mask-type="alpha" maskUnits="userSpaceOnUse" x="0" y="0" width="60" height="184">
<path d="M11.7727 0H47.2392C51.3328 0 52.8172 0.426959 54.3138 1.2287C55.8103 2.03044 56.9849 3.20696 57.7852 4.70608C58.5856 6.20521 59.0118 7.69219 59.0118 11.7928V172.207C59.0118 176.308 58.5856 177.795 57.7852 179.294C56.9849 180.793 55.8103 181.97 54.3138 182.771C52.8172 183.573 51.3328 184 47.2392 184H11.7727C7.67905 184 6.19461 183.573 4.69805 182.771C3.20148 181.97 2.02697 180.793 1.2266 179.294C0.42623 177.795 0 176.308 0 172.207L0 11.7928C0 7.69219 0.42623 6.20521 1.2266 4.70608C2.02697 3.20696 3.20148 2.03044 4.69805 1.2287C6.19461 0.426959 7.67905 0 11.7727 0Z" fill="white"/>
</mask>
<g mask="url(#mask2)">
<path d="M11.7727 0H47.2392C51.3328 0 52.8172 0.426959 54.3138 1.2287C55.8103 2.03044 56.9849 3.20696 57.7852 4.70608C58.5856 6.20521 59.0118 7.69219 59.0118 11.7928V172.207C59.0118 176.308 58.5856 177.795 57.7852 179.294C56.9849 180.793 55.8103 181.97 54.3138 182.771C52.8172 183.573 51.3328 184 47.2392 184H11.7727C7.67905 184 6.19461 183.573 4.69805 182.771C3.20148 181.97 2.02697 180.793 1.2266 179.294C0.42623 177.795 0 176.308 0 172.207L0 11.7928C0 7.69219 0.42623 6.20521 1.2266 4.70608C2.02697 3.20696 3.20148 2.03044 4.69805 1.2287C6.19461 0.426959 7.67905 0 11.7727 0Z" fill="#E8F2FE"/>
<path d="M2.63076 72.2861H56.3811C57.2958 72.2861 57.6276 72.3815 57.962 72.5607C58.2964 72.7399 58.5589 73.0028 58.7377 73.3378C58.9166 73.6728 59.0118 74.0051 59.0118 74.9214V184H0L0 74.9214C0 74.0051 0.0952469 73.6728 0.274101 73.3378C0.452954 73.0028 0.715415 72.7399 1.04984 72.5607C1.38427 72.3815 1.71599 72.2861 2.63076 72.2861Z" fill="#85BEFF"/>
</g>
</svg>
