<svg width="281" height="168" viewBox="0 0 281 168" fill="none" xmlns="http://www.w3.org/2000/svg">
<path d="M7.2536 166.223L61.6453 83.76C66.8078 75.9306 78.1236 75.1238 84.3299 82.1405L106.276 106.884C116.288 118.154 134.443 116.426 142.098 103.491L194.431 14.9442C199.669 6.07389 212.18 5.46324 218.348 13.7472L273.86 89.1833C275.153 90.9404 277.627 91.3177 279.386 90.0259C281.145 88.7342 281.522 86.2626 280.229 84.5055L224.704 9.0514C215.16 -3.76658 195.742 -2.81878 187.623 10.9301L135.292 99.474C130.368 107.794 118.645 108.91 112.19 101.644L90.2502 76.907C80.5979 65.9942 63.0692 67.2441 55.0439 79.4151L0.652558 161.878C-0.548572 163.699 -0.0445858 166.148 1.77824 167.348C3.60107 168.548 6.05247 168.045 7.2536 166.223Z" fill="#D8DEED"/>
<path d="M29.4653 137.487C36.0143 137.487 41.3233 132.184 41.3233 125.641C41.3233 119.099 36.0143 113.795 29.4653 113.795C22.9164 113.795 17.6074 119.099 17.6074 125.641C17.6074 132.184 22.9164 137.487 29.4653 137.487Z" fill="#85BEFF"/>
<path d="M161.702 73.589C168.251 73.589 173.56 68.2853 173.56 61.7428C173.56 55.2002 168.251 49.8965 161.702 49.8965C155.153 49.8965 149.844 55.2002 149.844 61.7428C149.844 68.2853 155.153 73.589 161.702 73.589Z" fill="#85BEFF"/>
</svg>
